<svg version="1.2" xmlns="http://www.w3.org/2000/svg" viewBox="0 0 574 481" width="574" height="481"><style>.a{fill:#f2f2f2}.b{fill:#e9b78a}.c{fill:#0ea5e9}.d{fill:#fff}.e{fill:#2f2e41}.f{fill:#ccc}</style><path class="a" d="m314.7 107.8h-26.2v223.8c0 3.5-0.7 7-2.1 10.3-1.3 3.2-3.3 6.2-5.8 8.6-2.4 2.5-5.4 4.5-8.6 5.8-3.3 1.4-6.8 2.1-10.3 2.1h-200.7v0.2c0 3.5 0.7 7 2 10.3 1.4 3.2 3.3 6.2 5.8 8.6 2.5 2.5 5.5 4.5 8.7 5.8 3.3 1.4 6.7 2.1 10.2 2.1h227c3.5 0 7-0.7 10.3-2.1 3.2-1.3 6.2-3.3 8.6-5.8 2.5-2.4 4.5-5.4 5.8-8.6 1.4-3.3 2.1-6.8 2.1-10.3v-224.1c0-3.5-0.7-7-2.1-10.2-1.3-3.2-3.3-6.2-5.8-8.7-2.4-2.5-5.4-4.4-8.6-5.8-3.3-1.3-6.8-2-10.3-2z"/><path class="a" d="m439.2 463.5c0.5 0 0.9-0.1 1.3-0.3 0.4-0.3 0.7-0.6 0.9-1.1 0.2-0.4 0.2-0.9 0.1-1.3-0.1-0.5-0.3-0.9-0.7-1.2l-0.1-0.6q0-0.1 0.1-0.2c0.4-1.1 1.2-2 2.2-2.7 1-0.7 2.2-1 3.4-1 1.2 0 2.4 0.4 3.4 1 1 0.7 1.7 1.6 2.2 2.8 1.8 4.4 4.2 8.8 4.8 13.5q0 0.8 0.1 1.6 0 0.7 0 1.5-0.1 0.8-0.2 1.6-0.1 0.7-0.3 1.5 1.6-3.5 2.9-7.2 1.2-3.7 2-7.5 0.9-3.7 1.3-7.6 0.4-3.8 0.4-7.7 0-1 0-2 0-0.9-0.1-1.9-0.1-1-0.1-2-0.1-0.9-0.2-1.9-0.4-3.2-1-6.3-0.9-4.2-2.2-8.3-1.4-4.2-3.2-8.1-1.9-3.9-4.1-7.6-2.3-3.6-5-7-1.3-0.7-2.5-1.6-1.2-0.9-2.2-2-1-1-1.9-2.3-0.8-1.2-1.5-2.5-0.3-0.5-0.5-1-0.2-0.5-0.3-1-0.2-0.5-0.3-1-0.2-0.5-0.3-1.1c0.4 0.1 1.5-5.9 1.2-6.3 0.6-0.8 1.6-1.2 2.2-2 2.9-4.1 7-3.4 9.2 2.1 4.6 2.3 4.6 6.2 1.8 9.9-1.8 2.3-2 5.5-3.6 8q0.3 0.3 0.5 0.6 1.1 1.4 2.1 2.9 1.1 1.5 2 3 1 1.5 1.9 3.1 0.9 1.6 1.7 3.2-0.2-1.8-0.2-3.6 0-1.8 0.2-3.6 0.3-1.8 0.7-3.6 0.5-1.7 1.1-3.4c1.8-4.2 5-7.8 7.9-11.4 0.8-1 1.8-1.8 3-2.1 1.2-0.4 2.4-0.5 3.6-0.1 1.2 0.3 2.3 1 3.1 1.9 0.8 0.9 1.3 2.1 1.5 3.3q0 0.1 0 0.2-0.6 0.4-1.2 0.8c-0.6 0.3-1 0.8-1.2 1.4-0.2 0.6-0.3 1.2-0.1 1.8 0.1 0.6 0.4 1.2 0.9 1.6 0.4 0.4 1 0.7 1.6 0.8h0.1q-0.1 0.6-0.2 1.1-0.1 0.6-0.2 1.2-0.1 0.6-0.2 1.1-0.1 0.6-0.2 1.2c3.7 14.3-4.3 19.5-15.7 19.7q-0.4 0.2-0.8 0.4 0.8 2.3 1.5 4.7 0.6 2.3 1.1 4.7 0.5 2.4 0.9 4.8 0.4 2.4 0.5 4.8 0.2 1.5 0.2 2.9 0.1 1.4 0.1 2.9-0.1 1.4-0.1 2.9-0.1 1.4-0.2 2.8v-0.1q0.3-1.6 0.9-3.1 0.6-1.5 1.4-2.9 0.8-1.4 1.9-2.6 1-1.2 2.2-2.3c5-4 12-5.5 17.3-8.8 0.6-0.4 1.2-0.6 1.9-0.6 0.7 0 1.3 0.2 1.9 0.6 0.6 0.4 1 0.9 1.3 1.5 0.3 0.6 0.4 1.3 0.3 1.9v0.2q-0.3 0.1-0.6 0.2-0.3 0.2-0.6 0.3-0.3 0.1-0.6 0.3-0.2 0.1-0.5 0.3-0.7 0.4-1.3 0.8c-0.5 0.3-0.9 0.8-1.1 1.4-0.3 0.6-0.3 1.2-0.2 1.8 0.2 0.6 0.5 1.2 0.9 1.6 0.5 0.4 1 0.7 1.7 0.8q0.1 0 0.2 0-0.6 1.2-1.2 2.4-0.6 1.2-1.3 2.3-0.7 1.1-1.5 2.1-0.8 1.1-1.7 2c-2.3 12.5-12.2 13.7-22.9 10.1q-0.4 1.9-1 3.8-0.5 1.8-1.1 3.7-0.7 1.8-1.4 3.6-0.7 1.8-1.5 3.6h-18q-0.1-0.3-0.2-0.6 0.6 0 1.2 0 0.7 0 1.3 0 0.6 0 1.2-0.1 0.6-0.1 1.3-0.2-2-2.5-4.1-4.9 0 0 0-0.1 0 0 0 0 0 0 0 0 0 0 0 0-1.1-1.3-2.1-2.5 0-1 0.1-2 0-0.9 0.1-1.9 0.1-1 0.3-1.9 0.2-0.9 0.4-1.9z"/><path class="b" d="m240.7 77.3c0.7 1 1.5 1.9 2.6 2.5 1 0.6 2.1 1 3.3 1.2 1.2 0.1 2.4 0 3.5-0.4 1.2-0.3 2.2-0.9 3.1-1.7l37.5 16.9 7.2-9.2-44.7-19.8c-1.4-1.4-3.4-2.2-5.4-2.2-2-0.1-4 0.6-5.5 1.9-1.5 1.3-2.6 3.1-2.8 5.1-0.3 2 0.1 4.1 1.2 5.7z"/><path class="c" d="m401.5 87.9l3.7 21c0.2 1 0.2 2-0.1 3-0.2 1-0.7 1.9-1.3 2.7-0.6 0.7-1.3 1.4-2.2 1.9-0.9 0.4-1.9 0.7-2.9 0.8l-63.1 5-74.2-33.2 8.8-16.9 64.5 20.4z"/><path class="a" d="m26.7 72.8h227c14.8 0 26.8 12 26.8 26.7v224.1c0 14.8-12 26.8-26.8 26.8h-227c-14.7 0-26.7-12-26.7-26.8v-224.1c0-14.7 12-26.7 26.7-26.7z"/><path class="d" d="m26.7 78.3c-2.7 0-5.5 0.5-8.1 1.6-2.6 1.1-4.9 2.6-6.9 4.6-2 2-3.5 4.3-4.6 6.9-1.1 2.6-1.6 5.3-1.6 8.1v224.1c0 2.8 0.5 5.6 1.6 8.2 1.1 2.5 2.6 4.9 4.6 6.9 2 1.9 4.3 3.5 6.9 4.6 2.6 1 5.4 1.6 8.1 1.6h144.9c13.6 0 27-2.7 39.6-7.9 12.5-5.2 23.9-12.8 33.5-22.4 9.6-9.6 17.2-21 22.4-33.5 5.2-12.6 7.9-26 7.9-39.6v-142c0-2.8-0.6-5.5-1.6-8.1-1.1-2.6-2.7-4.9-4.6-6.9-2-2-4.4-3.5-6.9-4.6-2.6-1.1-5.4-1.6-8.2-1.6z"/><path class="a" d="m203.7 146.3h-127.4c-1.2 0-2.3-0.5-3.1-1.3-0.9-0.8-1.3-1.9-1.3-3.1 0-1.2 0.4-2.3 1.3-3.1 0.8-0.9 1.9-1.3 3.1-1.3h127.4c1.2 0 2.3 0.4 3.1 1.3 0.8 0.8 1.3 1.9 1.3 3.1 0 1.2-0.5 2.3-1.3 3.1-0.8 0.8-1.9 1.3-3.1 1.3z"/><path class="a" d="m203.7 240.3h-127.4c-1.2 0-2.3-0.5-3.1-1.3-0.9-0.8-1.3-1.9-1.3-3.1 0-1.2 0.4-2.3 1.3-3.1 0.8-0.9 1.9-1.3 3.1-1.3h127.4c1.2 0 2.3 0.4 3.1 1.3 0.8 0.8 1.3 1.9 1.3 3.1 0 1.2-0.5 2.3-1.3 3.1-0.8 0.8-1.9 1.3-3.1 1.3z"/><path class="a" d="m255.4 193.3h-230.8c-1.2 0-2.3-0.4-3.2-1.3-0.8-0.8-1.3-1.9-1.3-3.1 0-1.1 0.5-2.3 1.3-3.1 0.9-0.8 2-1.3 3.2-1.3h230.8c1.2 0 2.3 0.5 3.1 1.3 0.9 0.8 1.3 2 1.3 3.1 0 1.2-0.4 2.3-1.3 3.1-0.8 0.9-1.9 1.3-3.1 1.3z"/><path class="b" d="m393.5 180.7l-23 49 88.5-9-18.5-47-47 7z"/><path class="b" d="m414.1 462.3l-8.4-0.1-3.7-33.1 12.4 0.1-0.3 33.1z"/><path class="e" d="m387.2 475.7q0 0.7 0.3 1.4 0.3 0.7 0.8 1.2 0.5 0.6 1.2 0.8 0.7 0.3 1.4 0.3l16.7 0.2 2.9-5.9 1.1 5.9 6.3 0.1-1.6-21.2-2.2-0.2-8.9-0.6-2.9-0.2v6l-13.4 9.1q-0.4 0.2-0.7 0.6-0.3 0.3-0.5 0.7-0.2 0.4-0.4 0.9-0.1 0.4-0.1 0.9z"/><path class="b" d="m321.3 462.4l-8-2.6 6.1-32.7 11.9 3.7-10 31.6z"/><path class="e" d="m291.7 467.2q-0.3 0.7-0.2 1.5 0.1 0.7 0.4 1.4 0.4 0.6 0.9 1.1 0.6 0.5 1.3 0.7l15.9 5.1 4.5-4.8-0.7 6 6 1.9 4.7-20.8-2-0.8-8.4-3.2-2.7-1-1.8 5.7-15.5 4.8q-0.4 0.1-0.8 0.3-0.4 0.3-0.7 0.6-0.3 0.3-0.6 0.7-0.2 0.4-0.3 0.8z"/><path class="e" d="m455 206.9l-80.5 14.8c0 0-12.9 9.6-9.4 13.1 3.4 3.5 4 2.9 1.7 5.2-2.3 2.3-7.2 5.3-7.2 7.3-0.1 2-36.1 91-36.1 91 0 0 4-2 1 1-3 3-3 5.4-3 5.4l-14 94.6 22.8 1.3 22.2-86.2 49.7-80.5c0 0 4.9 71.8 5.1 76.6 0.2 4.8 3.2-1.2 0.2 4.8-3 6-5 2-3 6 2 4-7.2 85.4-7.2 85.4h20.8l44.5-168.8c0 0 15.8-48.3-7.6-71z"/><path class="c" d="m431.3 71.9l-32.2-3.3-8.4 10.8-9.7 5.2c-2.1 1.1-3.9 2.5-5.6 4.1-1.7 1.6-3.1 3.5-4.2 5.5-1.1 2-2 4.2-2.5 6.5-0.5 2.2-0.7 4.6-0.5 6.9l11.3 66.1c0 0-9.6 21.6-3 27 6.6 5.4-5.1 18.7 9 12 14.1-6.7 75 1 75 1l-13-37 9.7-36.4 1.1-30.5c0.1-2.8-0.3-5.6-1.1-8.3-0.8-2.7-2-5.3-3.7-7.6-1.6-2.3-3.7-4.3-6-6-2.3-1.6-4.8-2.9-7.5-3.7l-1.4-0.4z"/><path class="e" d="m475.6 47.2c0.3 9.1-3.1 17.9-8 25.6-1.5-4.5-4.1-8.6-6.8-12.5q0.5 3.2 0.5 6.4 0 3.1-0.5 6.3-0.6 3.1-1.6 6.2-1 3-2.5 5.8-0.1 0-0.1 0.1-0.1 0-0.2 0 0 0.1-0.1 0.1 0 0.1-0.1 0.1c-4 2.4-9 3.3-13.3 1.6 8.9-9.6 10-25.4 2.6-36.2-2.1-3-4.9-5.7-6.2-9.2-2-5.5 0-11.6 1.2-17.4 1.2-5.3 1.4-11.7-2.2-15.7q0.3-0.4 0.6-0.7 0.4-0.3 0.9-0.5 0.4-0.3 0.9-0.3 0.5-0.1 1-0.1c2.3 0.3 3.9 2.3 4.9 4.3 1 1.9 1.7 4.2 3.2 5.9 2.6 3.2 7.1 3.9 11 5.6 9.2 4.2 14.6 14.5 14.8 24.6z"/><path class="f" d="m53 479.7q0 0.4 0.2 0.9 0.2 0.4 0.5 0.8 0.3 0.3 0.8 0.5 0.4 0.2 0.9 0.2h515.2c0.6 0 1.2-0.3 1.7-0.7 0.4-0.5 0.7-1.1 0.7-1.7 0-0.7-0.3-1.3-0.7-1.8-0.5-0.4-1.1-0.7-1.7-0.7h-515.2q-0.5 0-0.9 0.2-0.5 0.2-0.8 0.5-0.3 0.4-0.5 0.8-0.2 0.5-0.2 1z"/><path class="c" d="m477.6 257.7c-4.9 0-9-4-9-9 0-4.9 4.1-9 9-9 5 0 9 4.1 9 9 0 5-4 9-9 9z"/><path class="e" d="m397.9 42c0.5-1.8-3.1 9.5-1.4 9.7 8 0.9 19 5.7 24.6 7.9q0.4 0 0.7-0.1 0.9-0.1 1.8-0.3c12.9-2.4 17.9-22.3 17.9-22.5 0-0.9-2.1-25.5-5.5-25.9q-0.3 0-0.7 0-0.3-0.1-0.6-0.1-0.4 0-0.7 0-0.3 0-0.7 0h-8.4q-0.6-0.2-1.3-0.3-0.6-0.1-1.3-0.2-0.7-0.1-1.3-0.2-0.7 0-1.4-0.1c-16.9-1.3-30.2 9-29 21.6q0 0 0 0 0.6 0.8 1 1.6 0.4 0.7 0.7 1.3c1.6 3.2-2.4 7.2 0.2 8 3.5 1-9.2 33.9 4.7 33.9-6.8 1.9-0.8-29.2 0.7-34.3z"/><path class="b" d="m413 61.3c-11 0-19.9-8.9-19.9-19.9 0-11 8.9-19.9 19.9-19.9 11 0 19.9 8.9 19.9 19.9 0 11-8.9 19.9-19.9 19.9z"/><path class="e" d="m390.6 32.6q0.5 0.2 1 0.5 0.5 0.2 1 0.5c6.7 3 12.1 3.3 15.4-1q0.1-0.9 0.2-1.7 0.1-0.9 0.3-1.7 0.2-0.8 0.4-1.7 0.3-0.8 0.6-1.6 0 0.9 0.1 1.8 0 0.9 0.3 1.7 0.2 0.8 0.5 1.6 0.4 0.8 0.9 1.6h6.6c6.8 4.5 10.3 5 5.6 19.8-1.3 4.2-6.6 28.3-4.5 31.9 0.6-0.1 7-26.5 7.5-26.6 13-2.5 21.2-23.8 20.2-25q0-1.3-0.2-2.6-0.1-1.3-0.4-2.5-0.3-1.3-0.7-2.5-0.5-1.2-1-2.4-0.7-1.4-1.7-2.7-0.9-1.4-2-2.6-1.1-1.2-2.3-2.2-1.3-1-2.7-1.9-0.8-0.4-1.7-0.7-0.8-0.4-1.7-0.7-0.9-0.4-1.7-0.6-0.9-0.3-1.8-0.6-0.1 0-0.2 0-1.1-0.3-2.2-0.5-0.6-0.2-1.2-0.3-0.5-0.1-1.1-0.2-0.6-0.1-1.2-0.1-0.6-0.1-1.2-0.2-0.1 0-0.3 0-0.2 0-0.4 0.1-0.3 0-0.5 0.1-0.2 0-0.4 0.1-0.3 0.1-0.5 0.2 0 0 0 0-0.1 0.1-0.3 0.2-0.1 0.1-0.2 0.2-0.1 0.1-0.2 0.3-0.2 0.1-0.3 0.2-0.1 0.2-0.3 0.5-0.1 0.2-0.2 0.5-0.1 0.3-0.1 0.5-0.1 0.3-0.1 0.6h-7.4q-0.4 0-0.8 0c-2.4 0.1-4.8 0.7-7.1 1.6-2.2 1-4.3 2.3-6 4-1.8 1.7-3.2 3.8-4.2 6-1 2.2-1.6 4.6-1.8 7q0 0.6 0 1.1z"/><path class="e" d="m434.1 26.2c-7.2 0-13.1-5.8-13.1-13.1 0-7.2 5.9-13.1 13.1-13.1 7.3 0 13.1 5.9 13.1 13.1 0 7.3-5.8 13.1-13.1 13.1z"/><path class="b" d="m477.7 252.5c0.7-1 1.1-2.2 1.2-3.4 0.2-1.2 0.1-2.4-0.2-3.5-0.4-1.1-1-2.2-1.8-3.1-0.8-0.9-1.8-1.6-2.9-2l0.1-41.1-11.4-2.9 0.3 48.9c-0.7 1.9-0.6 4 0.2 5.8 0.8 1.9 2.2 3.4 4 4.3 1.8 0.8 3.9 1 5.8 0.5 2-0.6 3.7-1.8 4.7-3.5z"/><path class="c" d="m421.5 101.5l17.6-12c0.9-0.6 1.8-1 2.8-1.2 1-0.1 2-0.1 2.9 0.1 1 0.3 1.9 0.7 2.7 1.3 0.8 0.6 1.5 1.4 1.9 2.2l30.4 55.6 0.2 81.3-19-1.2-7.8-67.1z"/><path class="d" d="m285.6 285.9h-189c-4.1 0-8 1.6-10.9 4.5-2.9 2.9-4.6 6.9-4.6 11 0 4.1 1.7 8 4.6 10.9 2.9 2.9 6.8 4.6 10.9 4.6h189c4.2 0 8.1-1.7 11-4.6 2.9-2.9 4.5-6.8 4.5-10.9 0-4.1-1.6-8.1-4.5-11-2.9-2.9-6.8-4.5-11-4.5z"/><path fill-rule="evenodd" class="c" d="m285.6 317.9h-189c-4.3 0-8.5-1.8-11.6-4.9-3.1-3-4.9-7.2-4.9-11.6 0-4.4 1.8-8.6 4.9-11.7 3.1-3.1 7.3-4.8 11.6-4.8h189c4.4 0 8.6 1.7 11.7 4.8 3.1 3.1 4.8 7.3 4.8 11.7 0 4.4-1.7 8.6-4.8 11.6-3.1 3.1-7.3 4.9-11.7 4.9zm-189-31c-3.8 0-7.5 1.5-10.2 4.2-2.7 2.7-4.3 6.4-4.3 10.3 0 3.8 1.6 7.5 4.3 10.2 2.7 2.7 6.4 4.3 10.2 4.3h189c3.9 0 7.6-1.6 10.3-4.3 2.7-2.7 4.2-6.4 4.2-10.2 0-3.9-1.5-7.6-4.2-10.3-2.7-2.7-6.4-4.2-10.3-4.2z"/><path class="c" d="m296.8 353.5h-83.4c-1.2 0-2.3-0.4-3.1-1.3-0.9-0.8-1.3-1.9-1.3-3.1 0-1.2 0.4-2.3 1.3-3.1 0.8-0.8 1.9-1.3 3.1-1.3h83.4c1.2 0 2.3 0.5 3.1 1.3 0.8 0.8 1.3 1.9 1.3 3.1 0 1.2-0.5 2.3-1.3 3.1-0.8 0.9-1.9 1.3-3.1 1.3z"/></svg>