<svg version="1.2" xmlns="http://www.w3.org/2000/svg" viewBox="0 0 499 365" width="499" height="365"><style>.a{fill:#e6e6e6}.b{fill:#9f616a}.c{fill:#2f2e41}.d{fill:#0ea5e9}.e{fill:#fff}</style><path class="a" d="m-207 431.2c-65.3 0-118-4-118-9 0-4.9 52.7-9 118-9 65.3 0 118 4.1 118 9 0 5-52.7 9-118 9z"/><path class="b" d="m-168.8 27.5l-47.1-12.9q18.9-17.8 16.4-33.5h30.7z"/><path class="c" d="m-163.8 388.4l-15.2 2.1-18.3-168.3-29.3 167.6-15.6 0.7v-212.5h97z"/><path class="c" d="m-234.4 422.3q1.8 0.1 3.5-0.5 1.8-0.5 3.2-1.6 1.4-1 2.5-2.5 1-1.5 1.5-3.2l1.1-16.6-2.3-11.7c-5.9-4.9-11.9-4.8-17.9 0l-1.9 24.6c-0.1 1.4 0.1 2.9 0.5 4.3 0.5 1.3 1.2 2.6 2.2 3.7 1 1 2.1 1.9 3.5 2.5 1.3 0.6 2.7 1 4.1 1z"/><path class="c" d="m-171.6 422.3q1.8 0.1 3.5-0.5 1.7-0.5 3.2-1.6 1.4-1 2.4-2.5 1-1.5 1.5-3.2l1.1-16.6-2.2-11.7c-5.9-4.9-11.9-4.8-17.9 0l-1.9 24.6c-0.2 1.4 0 2.9 0.5 4.3 0.5 1.3 1.2 2.6 2.2 3.7 0.9 1 2.1 1.9 3.4 2.5 1.3 0.6 2.8 1 4.2 1z"/><path class="b" d="m-175.2 3.2c-15 0-27.1-12.1-27.1-27.1 0-15 12.1-27.1 27.1-27.1 15 0 27.1 12.1 27.1 27.1 0 15-12.1 27.1-27.1 27.1z"/><path class="a" d="m-141 181.5h-103.4c13.4-62.1 13.4-112.1 2.7-152.6q-0.5-2-0.3-3.9c0.1-1.3 0.5-2.6 1.1-3.8 0.6-1.2 1.4-2.2 2.4-3.1 1-0.9 2.1-1.6 3.4-2l27.8-10.8c8.4 10.8 20.1 15.5 38.5 8.6l14.6 3c1.8 0.4 3.4 1 5 2 1.5 0.9 2.8 2.2 3.9 3.6q1.6 2.1 2.4 4.8c0.6 1.7 0.8 3.5 0.7 5.3-1.1 15.8-0.7 31.7-1.6 45.5-2.9 42.6-4.1 75.9 2.8 103.4z"/><path class="c" d="m-189.5-59.6c0 0 15.7-17.8 34.3-0.7l5 1.5-3.6 2.8c0 0 18.5 8.6 17.1 26.4 0 0-2.8-0.7-4.3 0-1.4 0.7-2.1 8.6-2.1 8.6 0 0-2.1-5.7-2.9-6.5-0.7-0.7-10.7 7.9-27.1-5 0 0-5 12.9-10.7 11.5-5.7-1.5-13.5-0.8-17.1 8.5 0 0-19.2-41.4 11.4-47.1z"/><path class="b" d="m-136 165.8l-9.1 12.3c-1 1.3-1.7 2.7-2.1 4.3-0.3 1.5-0.4 3.1-0.2 4.7 0.3 1.6 0.8 3.1 1.6 4.5 0.9 1.3 2 2.5 3.3 3.4 1.6 1.2 3.6 2 5.6 2.2 2.1 0.3 4.1 0 6-0.8 1.9-0.8 3.6-2 4.9-3.6 1.2-1.7 2.1-3.6 2.4-5.6l2.6-16.4 5-70.6-3.6-35.6-22.8 8.5 6.4 30.7z"/><path class="a" d="m-145.2 81.7l27.8-12.9-1.5-10.1c0-4.1-0.6-8.3-1.8-12.2-1.2-4-3.1-7.8-5.4-11.2-2.4-3.4-5.2-6.5-8.5-9.1-3.2-2.6-6.9-4.7-10.7-6.2l-8.5-3.2z"/><path class="b" d="m-246.5 163l9.1 12.3c1 1.2 1.7 2.7 2.1 4.2 0.3 1.6 0.4 3.2 0.2 4.8-0.3 1.5-0.8 3.1-1.6 4.4-0.9 1.4-2 2.6-3.3 3.5-1.6 1.2-3.6 2-5.6 2.2-2.1 0.2-4.1-0.1-6-0.8-1.9-0.8-3.6-2.1-4.9-3.7-1.2-1.6-2.1-3.5-2.4-5.6l-2.6-16.3-5-70.6 3.6-35.7 22.8 8.6-6.4 30.6z"/><path class="a" d="m-237.3 78.8l-27.8-12.8 1.5-10.1q0-6.3 1.8-12.3c1.2-4 3.1-7.7 5.4-11.2 2.4-3.4 5.2-6.5 8.5-9 3.2-2.6 6.9-4.7 10.7-6.2l8.5-3.3z"/><path fill-rule="evenodd" class="a" d="m491 351.7h-476q-1.5 0-2.9-0.5-1.3-0.6-2.4-1.7-1.1-1-1.6-2.4-0.6-1.4-0.6-2.9v-207q0-1.5 0.6-2.8 0.5-1.4 1.6-2.5 1.1-1 2.4-1.6 1.4-0.6 2.9-0.6h476q1.5 0 2.9 0.6 1.3 0.6 2.4 1.6 1.1 1.1 1.6 2.5 0.6 1.3 0.6 2.8v207q0 1.5-0.6 2.9-0.5 1.4-1.6 2.4-1.1 1.1-2.4 1.7-1.4 0.5-2.9 0.5zm-476-219q-0.9 0-1.7 0.4-0.8 0.3-1.5 1-0.6 0.6-1 1.4-0.3 0.8-0.3 1.7v207q0 0.9 0.3 1.8 0.4 0.8 1 1.4 0.7 0.6 1.5 1 0.8 0.3 1.7 0.3h476q0.9 0 1.7-0.3 0.8-0.4 1.5-1 0.6-0.6 1-1.4 0.3-0.9 0.3-1.8v-207q0-0.9-0.3-1.7-0.4-0.8-1-1.4-0.7-0.7-1.5-1-0.8-0.4-1.7-0.4z"/><path class="a" d="m34.5 155.2c-1.2 0-2.3 0.5-3.2 1.4-0.8 0.8-1.3 1.9-1.3 3.1 0 1.2 0.5 2.4 1.3 3.2 0.9 0.9 2 1.3 3.2 1.3h63c1.2 0 2.3-0.4 3.2-1.3 0.8-0.8 1.3-2 1.3-3.2 0-1.2-0.5-2.3-1.3-3.1-0.9-0.9-2-1.4-3.2-1.4z"/><path class="a" d="m465.8 186.5v83.5h-424.8v-44q4.4-2.8 8.8-5.5c12.8-7.9 26.5-15.2 41.3-17.9q2.7-0.4 5.3-0.7 2.7-0.3 5.4-0.3 2.7 0 5.3 0.2 2.7 0.2 5.3 0.6c7.5 1.2 14.7 3.8 21.7 6.4 7 2.5 14 5.2 21.3 6.6q2.7 0.6 5.4 0.8 2.7 0.3 5.4 0.4 2.7 0 5.4-0.1 2.7-0.2 5.4-0.6c13.6-2.1 26.5-7.6 39.2-12.5 12.9-5 26.2-9.8 40.1-10.4 13.7-0.6 27.3 2.6 40.3 6.7 26.6 8.2 53.7 20.3 81.9 12 28.6-8.5 54.9-32.9 86.5-25.6q0.2 0 0.3 0 0.1 0.1 0.2 0.1 0.1 0.1 0.1 0.2 0.1 0 0.2 0.1z"/><path class="d" d="m465.8 188q-0.1 0.2-0.3 0.3-0.1 0.2-0.3 0.3-0.2 0-0.4 0.1-0.3 0-0.5-0.1-1.4-0.3-2.8-0.5-1.4-0.3-2.9-0.4-1.4-0.2-2.9-0.2-1.4-0.1-2.9-0.1c-31.1 0.6-55.1 25.7-85.6 29.4-27.4 3.4-53.3-10-79.1-16.9-13.4-3.7-27.3-5.6-41.1-3.1-13.7 2.4-26.5 8-39.4 13-12.5 4.8-25.4 9.2-38.9 9.5-14.8 0.2-28.1-5.9-41.8-10.5-7.2-2.5-14.5-4.4-22.1-4.6q-2.7 0-5.5 0.2-2.7 0.2-5.5 0.6-2.7 0.4-5.4 1.1-2.6 0.6-5.3 1.5c-14.6 4.6-27.7 12.9-40.5 21.1q-0.1 0.1-0.2 0.1-0.1 0.1-0.2 0.1-0.1 0-0.2 0-0.1 0-0.2 0-0.4 0-0.7-0.3-0.3-0.3-0.4-0.7-0.1-0.5 0-0.9 0.2-0.3 0.6-0.6l0.5-0.4q4.4-2.8 8.9-5.5c12.7-7.9 26.4-15.2 41.2-17.9q2.6-0.4 5.3-0.7 2.7-0.3 5.3-0.3 2.7 0 5.4 0.2 2.6 0.2 5.3 0.6c7.4 1.2 14.6 3.8 21.6 6.4 7 2.5 14 5.2 21.2 6.6q2.7 0.6 5.4 0.8 2.7 0.3 5.4 0.4 2.7 0 5.4-0.1 2.7-0.2 5.4-0.6c13.6-2.1 26.4-7.6 39.2-12.5 12.8-5 26-9.8 39.9-10.4 13.7-0.6 27.3 2.6 40.3 6.7 26.5 8.2 53.6 20.3 81.7 12 28.5-8.5 54.7-32.9 86.3-25.6q0.2 0 0.3 0 0.1 0.1 0.2 0.1 0.1 0.1 0.1 0.2 0.1 0 0.2 0.1 0.1 0.2 0.1 0.4 0.1 0.2 0.1 0.4 0 0.1-0.1 0.3 0 0.2-0.1 0.4z"/><path class="d" d="m99.5 209.7c-3.4 0-6.2-2.8-6.2-6.2 0-3.5 2.8-6.2 6.2-6.2 3.4 0 6.2 2.7 6.2 6.2 0 3.4-2.8 6.2-6.2 6.2z"/><path class="d" d="m256.5 201.7c-3.5 0-6.2-2.8-6.2-6.2 0-3.5 2.7-6.2 6.2-6.2 3.4 0 6.2 2.7 6.2 6.2 0 3.4-2.8 6.2-6.2 6.2z"/><path class="d" d="m448.1 193.7c-3.5 0-6.3-2.8-6.3-6.2 0-3.4 2.8-6.2 6.3-6.2 3.4 0 6.2 2.8 6.2 6.2 0 3.4-2.8 6.2-6.2 6.2z"/><path class="a" d="m96 305.2c-1.2 0-2.3 0.5-3.2 1.4-0.8 0.8-1.3 1.9-1.3 3.1 0 1.2 0.5 2.4 1.3 3.2 0.9 0.9 2 1.3 3.2 1.3h63c1.2 0 2.3-0.4 3.2-1.3 0.8-0.8 1.3-2 1.3-3.2 0-1.2-0.5-2.3-1.3-3.1-0.9-0.9-2-1.4-3.2-1.4z"/><path class="d" d="m55.5 326.2c-9.4 0-17-7.6-17-17 0-9.4 7.6-17 17-17 9.4 0 17 7.6 17 17 0 9.4-7.6 17-17 17z"/><path class="a" d="m248 305.2c-1.2 0-2.3 0.5-3.2 1.4-0.8 0.8-1.3 1.9-1.3 3.1 0 1.2 0.5 2.4 1.3 3.2 0.9 0.9 2 1.3 3.2 1.3h63c1.2 0 2.3-0.4 3.2-1.3 0.8-0.8 1.3-2 1.3-3.2 0-1.2-0.5-2.3-1.3-3.1-0.9-0.9-2-1.4-3.2-1.4z"/><path class="d" d="m207.5 326.2c-9.4 0-17-7.6-17-17 0-9.4 7.6-17 17-17 9.4 0 17 7.6 17 17 0 9.4-7.6 17-17 17z"/><path class="a" d="m400 305.2c-1.2 0-2.3 0.5-3.2 1.4-0.8 0.8-1.3 1.9-1.3 3.1 0 1.2 0.5 2.4 1.3 3.2 0.9 0.9 2 1.3 3.2 1.3h63c1.2 0 2.3-0.4 3.2-1.3 0.8-0.8 1.3-2 1.3-3.2 0-1.2-0.5-2.3-1.3-3.1-0.9-0.9-2-1.4-3.2-1.4z"/><path class="d" d="m359.5 326.2c-9.4 0-17-7.6-17-17 0-9.4 7.6-17 17-17 9.4 0 17 7.6 17 17 0 9.4-7.6 17-17 17z"/><path fill-rule="evenodd" class="a" d="m458.4 73.8h-234.8c-4.6 0-8.3-2.6-8.3-5.9v-51c0-3.3 3.7-5.9 8.3-5.9h234.8c4.6 0 8.3 2.6 8.3 5.9v51c0 3.3-3.7 5.9-8.3 5.9zm-234.8-60.4c-2.8 0-5 1.5-5 3.5v51c0 2 2.2 3.6 5 3.6h234.8c2.8 0 5-1.6 5-3.6v-51c0-2-2.2-3.5-5-3.5z"/><path class="d" d="m276.7 40q-1 0-1.9 0.4-1 0.4-1.7 1.1-0.7 0.7-1 1.6-0.4 0.9-0.4 1.9v35q0 1 0.4 1.9 0.3 0.9 1 1.6 0.7 0.7 1.7 1.1 0.9 0.4 1.9 0.4h179q1 0 1.9-0.4 0.9-0.4 1.6-1.1 0.7-0.7 1.1-1.6 0.4-0.9 0.4-1.9v-35q0-1-0.4-1.9-0.4-0.9-1.1-1.6-0.7-0.7-1.6-1.1-0.9-0.4-1.9-0.4z"/><path class="e" d="m301.7 74c-6.1 0-11-4.9-11-11 0-6.1 4.9-11 11-11 6.1 0 11 4.9 11 11 0 6.1-4.9 11-11 11z"/><path class="e" d="m351.8 58.2c-1.2 0-2.3 0.5-3.2 1.4-0.8 0.8-1.3 1.9-1.3 3.1 0 1.2 0.5 2.4 1.3 3.2 0.9 0.9 2 1.3 3.2 1.3h63c1.2 0 2.3-0.4 3.2-1.3 0.8-0.8 1.3-2 1.3-3.2 0-1.2-0.5-2.3-1.3-3.1-0.9-0.9-2-1.4-3.2-1.4z"/><path fill-rule="evenodd" class="a" d="m282.4-45.2h-234.8c-4.6 0-8.3-2.6-8.3-5.9v-51c0-3.3 3.7-5.9 8.3-5.9h234.8c4.6 0 8.3 2.6 8.3 5.9v51c0 3.3-3.7 5.9-8.3 5.9zm-234.8-60.4c-2.8 0-5 1.5-5 3.5v51c0 2 2.2 3.6 5 3.6h234.8c2.8 0 5-1.6 5-3.6v-51c0-2-2.2-3.5-5-3.5z"/><path class="d" d="m100.7-79q-1 0-1.9 0.4-1 0.4-1.7 1.1-0.7 0.7-1 1.6-0.4 0.9-0.4 1.9v35q0 1 0.4 1.9 0.3 0.9 1 1.6 0.7 0.7 1.7 1.1 0.9 0.4 1.9 0.4h179q1 0 1.9-0.4 0.9-0.4 1.6-1.1 0.7-0.7 1.1-1.6 0.4-0.9 0.4-1.9v-35q0-1-0.4-1.9-0.4-0.9-1.1-1.6-0.7-0.7-1.6-1.1-0.9-0.4-1.9-0.4z"/><path class="e" d="m125.7-45c-6.1 0-11-4.9-11-11 0-6.1 4.9-11 11-11 6.1 0 11 4.9 11 11 0 6.1-4.9 11-11 11z"/><path class="e" d="m175.8-60.8c-1.2 0-2.3 0.5-3.2 1.4-0.8 0.8-1.3 1.9-1.3 3.1 0 1.2 0.5 2.4 1.3 3.2 0.9 0.9 2 1.3 3.2 1.3h63c1.2 0 2.3-0.4 3.2-1.3 0.8-0.8 1.3-2 1.3-3.2 0-1.2-0.5-2.3-1.3-3.1-0.9-0.9-2-1.4-3.2-1.4z"/></svg>